<?xml version="1.0" encoding="iso-8859-1"?>
<!-- Generator: Adobe Illustrator 19.0.0, SVG Export Plug-In . SVG Version: 6.00 Build 0)  -->
<svg version="1.1" id="Capa_1" xmlns="http://www.w3.org/2000/svg" xmlns:xlink="http://www.w3.org/1999/xlink" x="0px" y="0px"
	 viewBox="0 0 512.016 512.016" style="enable-background:new 0 0 512.016 512.016;" xml:space="preserve">
<g>
	<g>
		<path d="M481.264,263.992c-0.624-1.176-1.352-2.456-2.096-3.648c-5.88-9.488-14.208-17.112-24.104-22.064l-22.72-11.36
			c-19.152-9.576-40.504-14.744-61.896-15.096l-50.752-30.44c-19.136-11.528-41.112-17.632-63.568-17.632h-49.96h-16.64H163.44
			h-22.624h-48L49.76,206.816l-9.624,9.624v24l-16,16v19.312c-0.008,22.064,17.936,40.008,39.992,40.008h11.376
			c2.864,6.616,7.48,12.144,13.136,16.272L0,332.264l0.04,16l192-0.504l-0.048-16l-56.2,0.144c5.6-4.12,10.16-9.616,12.976-16.144
			h52.68h16.264h98.6h17.224h21.96c2.808,6.472,7.296,11.904,12.784,16H256.016v16h208v-16h-48.04c5.512-4.104,10-9.544,12.784-16
			h35.368c13.232,0,24-10.768,24-24C488.128,282.096,485.76,272.512,481.264,263.992z M256.128,179.752L256.128,179.752
			c19.544,0.008,38.672,5.312,55.328,15.352l41.72,25.008l-11.184,7.456l-120.256-9.28l-2.168-7.584l-8.832-30.952H256.128z
			 M56.128,223.072l5.312-5.312l14.504,10.864l-7.136,7.136h-12.68V223.072z M135.4,305.496c-0.016,0.072-0.024,0.136-0.04,0.208
			l-0.056,0.192c-2.728,10.528-12.24,17.872-23.176,17.872c-10.968,0-20.512-7.392-23.256-18.168
			c-0.504-1.776-0.744-3.68-0.744-5.832c0-13.232,10.768-24,24-24s24,10.768,24,24C136.128,301.872,135.88,303.744,135.4,305.496z
			 M152.128,299.76c0-22.056-17.944-40-40-40c-22.056,0-40,17.944-40,40h-8c-13.232,0-24-10.768-24-24v-12.688L51.44,251.76h24
			l24.864-24.864l-27.44-20.56l26.568-26.576h25.376L99.568,205l33.848,22.576l52.736,4.08l1.176,6.464l11.208,61.64H152.128z
			 M138.832,211.936l-14.152-9.424l22.76-22.752h46.648l7.144,25.016l3.496,12.232L138.832,211.936z M336.128,266.224
			l-13.416,33.536H214.808l-8.576-47.128l-3.584-19.728l133.48,10.264V266.224z M415.4,305.496c-0.016,0.072-0.024,0.136-0.04,0.208
			l-0.056,0.192c-2.728,10.528-12.24,17.872-23.176,17.872c-10.968,0-20.512-7.392-23.256-18.168
			c-0.504-1.776-0.744-3.68-0.744-5.832c0-13.232,10.768-24,24-24s24,10.768,24,24C416.128,301.872,415.88,303.744,415.4,305.496z
			 M464.128,299.76h-32c0-22.056-17.944-40-40-40c-22.056,0-40,17.944-40,40h-12.184l12.184-30.464V240.04l18.392-12.256
			c18.896,0.36,37.752,4.992,54.672,13.456l22.72,11.352c3.752,1.88,7.184,4.312,10.24,7.168h-18.024v16h28.928
			c2,5.064,3.072,10.504,3.072,16C472.128,296.168,468.544,299.76,464.128,299.76z"/>
	</g>
</g>
<g>
	<g>
		<rect x="208.016" y="331.76" width="32" height="16"/>
	</g>
</g>
<g>
	<g>
		<rect x="480.016" y="331.76" width="32" height="16"/>
	</g>
</g>
<g>
	<g>
		<rect x="384.096" y="291.76" width="16" height="16"/>
	</g>
</g>
<g>
	<g>
		<rect x="104.096" y="291.76" width="16" height="16"/>
	</g>
</g>
<g>
</g>
<g>
</g>
<g>
</g>
<g>
</g>
<g>
</g>
<g>
</g>
<g>
</g>
<g>
</g>
<g>
</g>
<g>
</g>
<g>
</g>
<g>
</g>
<g>
</g>
<g>
</g>
<g>
</g>
</svg>
