<?xml version="1.0" encoding="iso-8859-1"?>
<!-- Generator: Adobe Illustrator 19.0.0, SVG Export Plug-In . SVG Version: 6.00 Build 0)  -->
<svg version="1.1" id="Capa_1" xmlns="http://www.w3.org/2000/svg" xmlns:xlink="http://www.w3.org/1999/xlink" x="0px" y="0px"
	 viewBox="0 0 512.016 512.016" style="enable-background:new 0 0 512.016 512.016;" xml:space="preserve">
<g>
	<g>
		<path d="M456.128,149.308h-80V127.54l-64-21.336V149.3v16v104h-264c-13.232,0-24,10.768-24,24v72h48.808
			c2.032,9.968,7.864,18.496,15.816,24.28L0,389.812l0.032,16l192-0.504l-0.04-16l-56.32,0.144
			c7.864-5.776,13.624-14.256,15.64-24.152h201.616c2,9.808,7.672,18.232,15.432,24.008H256.016v16h208v-16h-48.128
			c7.76-5.776,13.432-14.2,15.432-24.008h56.808v-47.992v-24v-48v-16v-48C488.128,163.66,473.776,149.308,456.128,149.308z
			 M328.128,128.404l32,10.664V149.3h-32V128.404z M328.12,165.3h32v80h112v25.376c-0.672-0.24-1.384-0.368-2.088-0.552
			c-0.472-0.12-0.92-0.272-1.408-0.368c-1.464-0.28-2.96-0.456-4.504-0.456h-24h-112V165.3z M112.128,381.308
			c-13.232,0-24-10.768-24-24s10.768-24,24-24s24,10.768,24,24S125.36,381.308,112.128,381.308z M355.376,341.644
			c-1.032,2.424-1.848,4.936-2.392,7.52c-0.008,0.048-0.032,0.096-0.048,0.144H151.32c0-0.008-0.008-0.016-0.008-0.024
			c-0.032-0.144-0.096-0.272-0.128-0.416c-0.496-2.304-1.2-4.528-2.072-6.664c-0.312-0.76-0.728-1.456-1.088-2.192
			c-0.712-1.464-1.44-2.912-2.32-4.272c-0.512-0.792-1.088-1.52-1.656-2.272c-0.896-1.192-1.816-2.352-2.84-3.44
			c-0.672-0.712-1.368-1.376-2.088-2.04c-1.072-0.992-2.192-1.912-3.376-2.784c-0.784-0.584-1.576-1.144-2.408-1.672
			c-1.272-0.8-2.592-1.488-3.952-2.144c-0.848-0.408-1.68-0.848-2.56-1.2c-1.536-0.608-3.136-1.064-4.76-1.48
			c-0.792-0.208-1.552-0.488-2.368-0.64c-2.464-0.48-5-0.768-7.6-0.768c-2.6,0-5.136,0.288-7.6,0.768
			c-0.816,0.16-1.568,0.432-2.368,0.64c-1.624,0.416-3.224,0.872-4.76,1.48c-0.88,0.352-1.712,0.784-2.56,1.2
			c-1.36,0.656-2.68,1.344-3.952,2.144c-0.832,0.528-1.616,1.088-2.408,1.672c-1.176,0.872-2.296,1.792-3.376,2.784
			c-0.72,0.664-1.416,1.328-2.088,2.04c-1.016,1.088-1.944,2.24-2.84,3.44c-0.56,0.752-1.144,1.48-1.656,2.272
			c-0.88,1.36-1.608,2.8-2.32,4.272c-0.36,0.736-0.776,1.432-1.088,2.192c-0.88,2.136-1.576,4.36-2.072,6.664
			c-0.032,0.144-0.096,0.272-0.128,0.416c0,0.008-0.008,0.016-0.008,0.024H40.128v-56c0-4.408,3.592-8,8-8h264v56h43.352
			C355.44,341.412,355.424,341.532,355.376,341.644z M392.128,381.308c-13.232,0-24-10.768-24-24c0-1.72,0.184-3.416,0.544-5.072
			c1.08-4.952,3.728-9.496,7.608-12.92c4.448-3.872,10.072-6.008,15.84-6.008c13.232,0,24,10.768,24,24
			S405.36,381.308,392.128,381.308z M472.128,349.308H431.32c0-0.008-0.008-0.016-0.008-0.024c-0.032-0.144-0.096-0.272-0.128-0.416
			c-0.496-2.304-1.2-4.528-2.072-6.664c-0.312-0.76-0.728-1.456-1.088-2.192c-0.712-1.464-1.44-2.912-2.32-4.272
			c-0.512-0.792-1.088-1.52-1.656-2.272c-0.896-1.192-1.816-2.352-2.84-3.44c-0.672-0.712-1.368-1.376-2.088-2.04
			c-1.072-0.992-2.192-1.912-3.376-2.784c-0.784-0.584-1.576-1.144-2.408-1.672c-1.272-0.8-2.592-1.488-3.952-2.144
			c-0.848-0.408-1.68-0.848-2.56-1.2c-1.536-0.608-3.136-1.064-4.76-1.48c-0.792-0.208-1.552-0.488-2.368-0.64
			c-2.464-0.48-5-0.768-7.6-0.768c-2.296,0-4.56,0.232-6.8,0.624c-0.728,0.128-1.424,0.36-2.136,0.528
			c-1.496,0.344-2.984,0.72-4.432,1.24c-0.816,0.288-1.592,0.672-2.384,1.016c-1.304,0.56-2.584,1.152-3.824,1.848
			c-0.8,0.448-1.552,0.96-2.32,1.464c-0.672,0.44-1.392,0.8-2.04,1.28h-40.032v-40h112v32h32V349.308z M472.128,301.308h-16v-16h8
			c4.408,0,8,3.592,8,8V301.308z M472.128,229.308h-96v-64h80c8.824,0,16,7.176,16,16V229.308z"/>
	</g>
</g>
<g>
	<g>
		<rect x="208.016" y="389.308" width="32" height="16"/>
	</g>
</g>
<g>
	<g>
		<rect x="480.016" y="389.308" width="32" height="16"/>
	</g>
</g>
<g>
	<g>
		<rect x="104.096" y="349.308" width="16" height="16"/>
	</g>
</g>
<g>
	<g>
		<rect x="384.096" y="349.308" width="16" height="16"/>
	</g>
</g>
<g>
</g>
<g>
</g>
<g>
</g>
<g>
</g>
<g>
</g>
<g>
</g>
<g>
</g>
<g>
</g>
<g>
</g>
<g>
</g>
<g>
</g>
<g>
</g>
<g>
</g>
<g>
</g>
<g>
</g>
</svg>
