<?xml version="1.0" encoding="iso-8859-1"?>
<!-- Generator: Adobe Illustrator 19.0.0, SVG Export Plug-In . SVG Version: 6.00 Build 0)  -->
<svg version="1.1" id="Capa_1" xmlns="http://www.w3.org/2000/svg" xmlns:xlink="http://www.w3.org/1999/xlink" x="0px" y="0px"
	 viewBox="0 0 512.024 512.024" style="enable-background:new 0 0 512.024 512.024;" xml:space="preserve">
<g>
	<g>
		<path d="M488.136,340.012c0-30.872-25.128-56-56-56c-12.56,0-24.12,4.208-33.472,11.216l-11.44-11.44
			c12.72-10.2,28.384-15.776,44.912-15.776h9.984l-2.176-9.744c-9.088-40.768-36.688-74.624-73.888-92.088l18.08-3.616v-27.776
			l-59.168-26.032c-3.328-1.432-7.192-0.76-9.848,1.68c-2.664,2.456-3.648,6.248-2.48,9.76l4.048,11.816h-28.552v16h34.048
			l6.56,19.112l14.984,44.968l-24.968,79.92h-54.624c-26.472,0-48-21.96-48-48.96V218.14c3.92,0,7.728-1.448,10.672-4.08
			c3.392-3.032,5.328-7.376,5.328-11.92v-15.896c0-8.168-6.128-15.016-14.232-15.904L89.896,156.116
			c-4.472-0.48-9.048,0.96-12.432,3.984c-3.392,3.024-5.328,7.368-5.328,11.912v19.04l-48,24.016v52.944h64
			c24.312,0,46.328,11.472,59.44,30.448l-15.824,5.624c-10.496-13.08-26.648-21.008-43.616-21.008c-30.872,0-56,25.128-56,56
			c0,20.912,11.552,39.16,28.592,48.776L0,388.012l0.048,16l192-0.504l-0.048-16l-76.4,0.2c13.52-7.744,23.672-20.976,27.144-36.664
			l49.392-3.032h109.128h16.76h42.112v-8c0-16.528,5.576-32.192,15.776-44.912l11.44,11.44
			c-7.008,9.352-11.216,20.912-11.216,33.472c0,20.032,10.616,37.6,26.488,47.504h-146.6v16h208v-16h-2.376
			C477.52,377.62,488.136,360.052,488.136,340.012z M88.136,172.012l128,14.224l-0.056,15.84L88.136,188.78V172.012z
			 M88.136,379.076c-22.056,0-40-17.944-40-40c0-22.056,17.944-40,40-40c10.448,0,20.472,4.2,27.84,11.336l-16.944,7.296
			c-0.24-0.128-0.512-0.168-0.752-0.28c-1.192-0.568-2.424-1.024-3.688-1.384c-0.464-0.128-0.912-0.264-1.384-0.368
			c-1.648-0.352-3.328-0.6-5.064-0.6c-13.232,0-24,10.768-24,24s10.768,24,24,24c1.688,0,3.336-0.24,4.952-0.584
			c0.312-0.072,0.624-0.128,0.936-0.208c1.552-0.4,3.056-0.944,4.496-1.64c0.232-0.112,0.448-0.248,0.672-0.36
			c1.448-0.76,2.832-1.632,4.096-2.664c0.032-0.024,0.056-0.04,0.088-0.064c1.312-1.08,2.472-2.328,3.536-3.664
			c0.08-0.096,0.176-0.168,0.256-0.264l18.688-1.392C120.32,367.86,105.272,379.076,88.136,379.076z M96.136,339.06
			c0,1.168-0.256,2.264-0.744,3.256c-0.008,0.024-0.016,0.048-0.024,0.08l-0.104,0.208c-1.344,2.712-4.112,4.472-7.12,4.472
			c-4.416,0-8-3.584-8-8c0-4.416,3.584-8,8-8c1.848,0,3.592,0.632,5.072,1.856l0.016,0.016
			C95.096,334.484,96.128,336.668,96.136,339.06z M143.256,334.836l-31.184,2.368c-0.08-1.08-0.264-2.136-0.488-3.176
			c-0.016-0.088-0.024-0.184-0.04-0.272c-0.272-1.2-0.632-2.376-1.088-3.52l21.536-9.264l23.104-8.216
			c2.64,6.704,4.208,13.84,4.736,21.12L143.256,334.836z M306.256,332.012l-114.576,0.016l-15.904,0.92
			c-0.616-8.792-2.448-17.432-5.592-25.568l-3.632-8.288c-14.8-29.032-44.848-47.08-78.416-47.08h-48v-8h120v-16h-120v-3.056
			l41.448-20.752l118.552,12.352v26.496c0,35.824,28.712,64.96,64,64.96h49.6L306.256,332.012z M341.432,154.796l-8.624-25.104
			l35.328,15.536v4.224L341.432,154.796z M369.92,277.796c-14.728,14.736-23.584,33.744-25.424,54.216h-21.488l37.528-120.08
			l-11.888-35.672c35.104,12.464,62.28,40.872,73.24,76.336C402.28,254.86,384.112,263.604,369.92,277.796z M432.136,380.012
			c-22.056,0-40-17.944-40-40c0-8.136,2.472-15.696,6.664-22.024l27.68,27.68l11.312-11.312l-27.68-27.68
			c6.328-4.192,13.888-6.664,22.024-6.664c22.056,0,40,17.944,40,40C472.136,362.068,454.192,380.012,432.136,380.012z"/>
	</g>
</g>
<g>
	<g>
		<rect x="208.024" y="387.516" width="32" height="16"/>
	</g>
</g>
<g>
	<g>
		<rect x="480.024" y="387.516" width="32" height="16"/>
	</g>
</g>
<g>
</g>
<g>
</g>
<g>
</g>
<g>
</g>
<g>
</g>
<g>
</g>
<g>
</g>
<g>
</g>
<g>
</g>
<g>
</g>
<g>
</g>
<g>
</g>
<g>
</g>
<g>
</g>
<g>
</g>
</svg>
